<svg width="101" height="101" viewBox="0 0 101 101" fill="none" xmlns="http://www.w3.org/2000/svg">
<rect x="0.5" y="0.535156" width="100" height="100" rx="50" fill="#331436"/>
<path d="M68.5 49.5352C68.5069 52.1749 67.8901 54.779 66.7 57.1352C65.2889 59.9587 63.1195 62.3336 60.4349 63.9938C57.7503 65.654 54.6565 66.534 51.5 66.5352C48.8603 66.5421 46.2562 65.9254 43.9 64.7352L32.5 68.5352L36.3 57.1352C35.1099 54.779 34.4931 52.1749 34.5 49.5352C34.5012 46.3787 35.3812 43.2849 37.0414 40.6003C38.7017 37.9157 41.0765 35.7463 43.9 34.3352C46.2562 33.1451 48.8603 32.5283 51.5 32.5352H52.5C56.6687 32.7652 60.6061 34.5247 63.5583 37.4769C66.5105 40.4291 68.27 44.3665 68.5 48.5352V49.5352Z" stroke="white" stroke-width="4" stroke-linecap="round" stroke-linejoin="round"/>
</svg>
