<svg width="101" height="101" viewBox="0 0 101 101" fill="none" xmlns="http://www.w3.org/2000/svg">
<rect x="0.5" y="0.535156" width="100" height="100" rx="50" fill="#331436"/>
<path d="M55.9 39.1351C55.5335 39.509 55.3283 40.0116 55.3283 40.5351C55.3283 41.0586 55.5335 41.5613 55.9 41.9351L59.1 45.1351C59.4738 45.5016 59.9765 45.7068 60.5 45.7068C61.0235 45.7068 61.5261 45.5016 61.9 45.1351L69.44 37.5951C70.4457 39.8175 70.7502 42.2936 70.3129 44.6934C69.8756 47.0932 68.7174 49.3028 66.9925 51.0277C65.2677 52.7525 63.0581 53.9108 60.6583 54.348C58.2585 54.7853 55.7824 54.4808 53.56 53.4751L39.74 67.2951C38.9443 68.0908 37.8652 68.5378 36.74 68.5378C35.6148 68.5378 34.5356 68.0908 33.74 67.2951C32.9443 66.4995 32.4973 65.4203 32.4973 64.2951C32.4973 63.1699 32.9443 62.0908 33.74 61.2951L47.56 47.4751C46.5543 45.2527 46.2498 42.7766 46.6871 40.3768C47.1243 37.977 48.2826 35.7674 50.0074 34.0426C51.7323 32.3177 53.9419 31.1595 56.3417 30.7222C58.7415 30.2849 61.2176 30.5894 63.44 31.5951L55.9 39.1351Z" stroke="white" stroke-width="4" stroke-linecap="round" stroke-linejoin="round"/>
</svg>
