<svg width="101" height="101" viewBox="0 0 101 101" fill="none" xmlns="http://www.w3.org/2000/svg">
<rect x="0.5" y="0.535156" width="100" height="100" rx="50" fill="#331436"/>
<path d="M44.5 32.5352H36.5C35.4391 32.5352 34.4217 32.9566 33.6716 33.7067C32.9214 34.4569 32.5 35.4743 32.5 36.5352V44.5352M44.5 32.5352H64.5C65.5609 32.5352 66.5783 32.9566 67.3284 33.7067C68.0786 34.4569 68.5 35.4743 68.5 36.5352V44.5352M44.5 32.5352V68.5352M32.5 44.5352V64.5352C32.5 65.596 32.9214 66.6134 33.6716 67.3636C34.4217 68.1137 35.4391 68.5352 36.5 68.5352H44.5M32.5 44.5352H68.5M68.5 44.5352V64.5352C68.5 65.596 68.0786 66.6134 67.3284 67.3636C66.5783 68.1137 65.5609 68.5352 64.5 68.5352H44.5" stroke="white" stroke-width="4" stroke-linecap="round" stroke-linejoin="round"/>
</svg>
